# xmcd CD database file
#
# Track frame offsets:
#	150
#	17255
#	39397
#	56990
#	73012
#	86110
#	126797
#	137727
#	153540
#	184920
#	197585
#	217985
#	228800
#
# Disc length: 3258 seconds
#
# Revision: 4
# Processed by: cddbd v1.5.2PL0 Copyright (c) Steve Scherf et al.
# Submitted via: CDex 1.70beta3
#
DISCID=b10cb80d
DTITLE=Fleetwood Mac - Then Play On
DYEAR=1970
DGENRE=Rock
TTITLE0=Coming Your Way
TTITLE1=Closing My Eyes
TTITLE2=Show-Biz Blues
TTITLE3=My Dream
TTITLE4=Underway
TTITLE5=Oh Well
TTITLE6=Although The Sun Is Shining
TTITLE7=Rattlesnake Shake
TTITLE8=Searching For Madge
TTITLE9=Fighting For Madge
TTITLE10=When You Say
TTITLE11=Like Crying
TTITLE12=Before The Beginning
EXTD=YEAR: 1970
EXTT0=
EXTT1=
EXTT2=
EXTT3=
EXTT4=
EXTT5=
EXTT6=
EXTT7=
EXTT8=
EXTT9=
EXTT10=
EXTT11=
EXTT12=
PLAYORDER=
